<mxfile host="app.diagrams.net" agent="Mozilla/5.0 (Windows NT 10.0; Win64; x64) AppleWebKit/537.36 (KHTML, like Gecko) Chrome/131.0.0.0 Safari/537.36" version="24.8.8">
  <diagram name="Page-1" id="kRHuVzN3NbyFUTARxabG">
    <mxGraphModel dx="1434" dy="784" grid="1" gridSize="10" guides="1" tooltips="1" connect="1" arrows="1" fold="1" page="1" pageScale="1" pageWidth="850" pageHeight="1100" background="#c8d6da" math="0" shadow="0">
      <root>
        <mxCell id="0" />
        <mxCell id="1" parent="0" />
        <mxCell id="Iq69d2L0u7uSSFG06dhG-54" style="edgeStyle=orthogonalEdgeStyle;rounded=0;orthogonalLoop=1;jettySize=auto;html=1;exitX=0.5;exitY=1;exitDx=0;exitDy=0;entryX=0.5;entryY=0;entryDx=0;entryDy=0;" edge="1" parent="1" source="Iq69d2L0u7uSSFG06dhG-1" target="Iq69d2L0u7uSSFG06dhG-3">
          <mxGeometry relative="1" as="geometry" />
        </mxCell>
        <mxCell id="Iq69d2L0u7uSSFG06dhG-1" value="START" style="ellipse;whiteSpace=wrap;html=1;" vertex="1" parent="1">
          <mxGeometry x="405" y="80" width="70" height="50" as="geometry" />
        </mxCell>
        <mxCell id="Iq69d2L0u7uSSFG06dhG-37" value="" style="edgeStyle=orthogonalEdgeStyle;rounded=0;orthogonalLoop=1;jettySize=auto;html=1;" edge="1" parent="1" source="Iq69d2L0u7uSSFG06dhG-3" target="Iq69d2L0u7uSSFG06dhG-5">
          <mxGeometry relative="1" as="geometry" />
        </mxCell>
        <mxCell id="Iq69d2L0u7uSSFG06dhG-57" value="Text" style="edgeLabel;html=1;align=center;verticalAlign=middle;resizable=0;points=[];" vertex="1" connectable="0" parent="Iq69d2L0u7uSSFG06dhG-37">
          <mxGeometry x="-0.5143" y="1" relative="1" as="geometry">
            <mxPoint as="offset" />
          </mxGeometry>
        </mxCell>
        <mxCell id="Iq69d2L0u7uSSFG06dhG-56" value="" style="edgeStyle=orthogonalEdgeStyle;rounded=0;orthogonalLoop=1;jettySize=auto;html=1;" edge="1" parent="1" source="Iq69d2L0u7uSSFG06dhG-3" target="Iq69d2L0u7uSSFG06dhG-55">
          <mxGeometry relative="1" as="geometry" />
        </mxCell>
        <mxCell id="Iq69d2L0u7uSSFG06dhG-3" value="Login" style="rounded=0;whiteSpace=wrap;html=1;" vertex="1" parent="1">
          <mxGeometry x="380" y="160" width="120" height="60" as="geometry" />
        </mxCell>
        <mxCell id="Iq69d2L0u7uSSFG06dhG-36" value="" style="edgeStyle=orthogonalEdgeStyle;rounded=0;orthogonalLoop=1;jettySize=auto;html=1;" edge="1" parent="1" source="Iq69d2L0u7uSSFG06dhG-4" target="Iq69d2L0u7uSSFG06dhG-5">
          <mxGeometry relative="1" as="geometry" />
        </mxCell>
        <mxCell id="Iq69d2L0u7uSSFG06dhG-4" value="Teknisi Melihat Jadwalnya" style="rounded=0;whiteSpace=wrap;html=1;" vertex="1" parent="1">
          <mxGeometry x="380" y="280" width="120" height="60" as="geometry" />
        </mxCell>
        <mxCell id="Iq69d2L0u7uSSFG06dhG-7" value="" style="edgeStyle=orthogonalEdgeStyle;rounded=0;orthogonalLoop=1;jettySize=auto;html=1;" edge="1" parent="1" source="Iq69d2L0u7uSSFG06dhG-5" target="Iq69d2L0u7uSSFG06dhG-6">
          <mxGeometry relative="1" as="geometry" />
        </mxCell>
        <mxCell id="Iq69d2L0u7uSSFG06dhG-5" value="Teknisi Memilih Jadwal Service" style="rounded=0;whiteSpace=wrap;html=1;" vertex="1" parent="1">
          <mxGeometry x="380" y="360" width="120" height="60" as="geometry" />
        </mxCell>
        <mxCell id="Iq69d2L0u7uSSFG06dhG-41" value="" style="edgeStyle=orthogonalEdgeStyle;rounded=0;orthogonalLoop=1;jettySize=auto;html=1;" edge="1" parent="1" source="Iq69d2L0u7uSSFG06dhG-6" target="Iq69d2L0u7uSSFG06dhG-40">
          <mxGeometry relative="1" as="geometry" />
        </mxCell>
        <mxCell id="Iq69d2L0u7uSSFG06dhG-6" value="Pop Up Detail Service Muncul" style="rounded=0;whiteSpace=wrap;html=1;" vertex="1" parent="1">
          <mxGeometry x="380" y="460" width="120" height="60" as="geometry" />
        </mxCell>
        <mxCell id="Iq69d2L0u7uSSFG06dhG-19" value="" style="edgeStyle=orthogonalEdgeStyle;rounded=0;orthogonalLoop=1;jettySize=auto;html=1;exitX=1;exitY=0.5;exitDx=0;exitDy=0;" edge="1" parent="1" source="Iq69d2L0u7uSSFG06dhG-50" target="Iq69d2L0u7uSSFG06dhG-18">
          <mxGeometry relative="1" as="geometry">
            <mxPoint x="680" y="600" as="sourcePoint" />
          </mxGeometry>
        </mxCell>
        <mxCell id="Iq69d2L0u7uSSFG06dhG-27" value="" style="edgeStyle=orthogonalEdgeStyle;rounded=0;orthogonalLoop=1;jettySize=auto;html=1;exitX=0.5;exitY=0;exitDx=0;exitDy=0;" edge="1" parent="1" source="Iq69d2L0u7uSSFG06dhG-18" target="Iq69d2L0u7uSSFG06dhG-26">
          <mxGeometry relative="1" as="geometry">
            <Array as="points">
              <mxPoint x="770" y="300" />
            </Array>
          </mxGeometry>
        </mxCell>
        <mxCell id="Iq69d2L0u7uSSFG06dhG-29" value="Belum" style="edgeLabel;html=1;align=center;verticalAlign=middle;resizable=0;points=[];" vertex="1" connectable="0" parent="Iq69d2L0u7uSSFG06dhG-27">
          <mxGeometry x="-0.35" y="-3" relative="1" as="geometry">
            <mxPoint x="-3" y="-7" as="offset" />
          </mxGeometry>
        </mxCell>
        <mxCell id="Iq69d2L0u7uSSFG06dhG-34" value="" style="edgeStyle=orthogonalEdgeStyle;rounded=0;orthogonalLoop=1;jettySize=auto;html=1;" edge="1" parent="1" source="Iq69d2L0u7uSSFG06dhG-18" target="Iq69d2L0u7uSSFG06dhG-33">
          <mxGeometry relative="1" as="geometry" />
        </mxCell>
        <mxCell id="Iq69d2L0u7uSSFG06dhG-53" value="Sudah" style="edgeLabel;html=1;align=center;verticalAlign=middle;resizable=0;points=[];" vertex="1" connectable="0" parent="Iq69d2L0u7uSSFG06dhG-34">
          <mxGeometry x="-0.1636" y="2" relative="1" as="geometry">
            <mxPoint as="offset" />
          </mxGeometry>
        </mxCell>
        <mxCell id="Iq69d2L0u7uSSFG06dhG-18" value="Apakah selesai?" style="rhombus;whiteSpace=wrap;html=1;rounded=0;" vertex="1" parent="1">
          <mxGeometry x="730" y="430" width="80" height="80" as="geometry" />
        </mxCell>
        <mxCell id="Iq69d2L0u7uSSFG06dhG-30" style="edgeStyle=orthogonalEdgeStyle;rounded=0;orthogonalLoop=1;jettySize=auto;html=1;exitX=0;exitY=0.5;exitDx=0;exitDy=0;entryX=1;entryY=0.5;entryDx=0;entryDy=0;" edge="1" parent="1" source="Iq69d2L0u7uSSFG06dhG-26" target="Iq69d2L0u7uSSFG06dhG-5">
          <mxGeometry relative="1" as="geometry">
            <Array as="points">
              <mxPoint x="530" y="300" />
              <mxPoint x="530" y="390" />
            </Array>
          </mxGeometry>
        </mxCell>
        <mxCell id="Iq69d2L0u7uSSFG06dhG-26" value="Simpan Kondisi&lt;div&gt;terakhir, dan buat&lt;/div&gt;&lt;div&gt;jadwal baru&lt;div&gt;untuk besok&lt;/div&gt;&lt;/div&gt;" style="shape=parallelogram;perimeter=parallelogramPerimeter;whiteSpace=wrap;html=1;fixedSize=1;rounded=0;" vertex="1" parent="1">
          <mxGeometry x="545" y="270" width="150" height="60" as="geometry" />
        </mxCell>
        <mxCell id="Iq69d2L0u7uSSFG06dhG-33" value="Simpan &amp;amp; tandai sebagai Selesai" style="shape=parallelogram;perimeter=parallelogramPerimeter;whiteSpace=wrap;html=1;fixedSize=1;rounded=0;" vertex="1" parent="1">
          <mxGeometry x="545" y="440" width="120" height="60" as="geometry" />
        </mxCell>
        <mxCell id="Iq69d2L0u7uSSFG06dhG-35" style="edgeStyle=orthogonalEdgeStyle;rounded=0;orthogonalLoop=1;jettySize=auto;html=1;entryX=1.008;entryY=0.617;entryDx=0;entryDy=0;entryPerimeter=0;" edge="1" parent="1" source="Iq69d2L0u7uSSFG06dhG-33" target="Iq69d2L0u7uSSFG06dhG-5">
          <mxGeometry relative="1" as="geometry">
            <Array as="points">
              <mxPoint x="530" y="470" />
              <mxPoint x="530" y="397" />
            </Array>
          </mxGeometry>
        </mxCell>
        <mxCell id="Iq69d2L0u7uSSFG06dhG-43" value="" style="edgeStyle=orthogonalEdgeStyle;rounded=0;orthogonalLoop=1;jettySize=auto;html=1;" edge="1" parent="1" source="Iq69d2L0u7uSSFG06dhG-40" target="Iq69d2L0u7uSSFG06dhG-42">
          <mxGeometry relative="1" as="geometry" />
        </mxCell>
        <mxCell id="Iq69d2L0u7uSSFG06dhG-40" value="Teknisi Memotret kondisi perangkat sebelum ditindak" style="shape=parallelogram;perimeter=parallelogramPerimeter;whiteSpace=wrap;html=1;fixedSize=1;rounded=0;" vertex="1" parent="1">
          <mxGeometry x="375" y="550" width="130" height="60" as="geometry" />
        </mxCell>
        <mxCell id="Iq69d2L0u7uSSFG06dhG-44" value="" style="edgeStyle=orthogonalEdgeStyle;rounded=0;orthogonalLoop=1;jettySize=auto;html=1;entryX=0;entryY=0.5;entryDx=0;entryDy=0;" edge="1" parent="1" source="Iq69d2L0u7uSSFG06dhG-42" target="Iq69d2L0u7uSSFG06dhG-48">
          <mxGeometry relative="1" as="geometry">
            <mxPoint x="560" y="680" as="targetPoint" />
          </mxGeometry>
        </mxCell>
        <mxCell id="Iq69d2L0u7uSSFG06dhG-42" value="Teknisi mencatat&lt;div&gt;kondisi perangkat&lt;div&gt;sebelum ditindak&lt;/div&gt;&lt;/div&gt;" style="shape=parallelogram;perimeter=parallelogramPerimeter;whiteSpace=wrap;html=1;fixedSize=1;rounded=0;" vertex="1" parent="1">
          <mxGeometry x="370" y="650" width="140" height="60" as="geometry" />
        </mxCell>
        <mxCell id="Iq69d2L0u7uSSFG06dhG-51" value="" style="edgeStyle=orthogonalEdgeStyle;rounded=0;orthogonalLoop=1;jettySize=auto;html=1;" edge="1" parent="1" source="Iq69d2L0u7uSSFG06dhG-48" target="Iq69d2L0u7uSSFG06dhG-50">
          <mxGeometry relative="1" as="geometry" />
        </mxCell>
        <mxCell id="Iq69d2L0u7uSSFG06dhG-48" value="Teknis memotret kondisi perangkat setelah dilakukan tindakan" style="shape=parallelogram;perimeter=parallelogramPerimeter;whiteSpace=wrap;html=1;fixedSize=1;" vertex="1" parent="1">
          <mxGeometry x="540" y="650" width="150" height="60" as="geometry" />
        </mxCell>
        <mxCell id="Iq69d2L0u7uSSFG06dhG-50" value="Teknisi mencatat kondisi perangkat setelah ditindak" style="shape=parallelogram;perimeter=parallelogramPerimeter;whiteSpace=wrap;html=1;fixedSize=1;" vertex="1" parent="1">
          <mxGeometry x="555" y="550" width="120" height="60" as="geometry" />
        </mxCell>
        <mxCell id="Iq69d2L0u7uSSFG06dhG-55" value="" style="whiteSpace=wrap;html=1;rounded=0;" vertex="1" parent="1">
          <mxGeometry x="180" y="200" width="120" height="60" as="geometry" />
        </mxCell>
      </root>
    </mxGraphModel>
  </diagram>
</mxfile>
